<svg width="350px" height="244px" xmlns="http://www.w3.org/2000/svg" viewBox="162.49365234375 14 175.0126953125 122" style="background: rgba(0, 0, 0, 0);" preserveAspectRatio="xMidYMid"><defs><filter id="editing-hole" x="-100%" y="-100%" width="300%" height="300%"><feFlood flood-color="#000" result="black"></feFlood><feMorphology operator="dilate" radius="2" in="SourceGraphic" result="erode"></feMorphology><feGaussianBlur in="erode" stdDeviation="4" result="blur"></feGaussianBlur><feOffset in="blur" dx="2" dy="2" result="offset"></feOffset><feComposite operator="atop" in="offset" in2="black" result="merge"></feComposite><feComposite operator="in" in="merge" in2="SourceGraphic" result="inner-shadow"></feComposite></filter></defs><g filter="url(#editing-hole)"><g transform="translate(195.85403645038605, 97.39999961853027)"><path d="M6.53 0L-0.83 0L10.75-42.24L24.13-42.24L27.07-18.11L38.98-42.24L50.18-42.24L51.33-10.62L51.33-10.62Q51.58-4.35 54.66-2.43L54.66-2.43L54.66-2.43Q53.95-1.15 51.90 0.06L51.90 0.06L51.90 0.06Q49.86 1.28 47.14 1.28L47.14 1.28L47.14 1.28Q44.42 1.28 42.82 0.51L42.82 0.51L42.82 0.51Q41.22-0.26 40.32-1.54L40.32-1.54L40.32-1.54Q38.72-3.84 38.72-8.26L38.72-8.26L38.72-28.03L26.11 0L18.18 0L13.70-28.74L6.53 0ZM90.82-13.25L90.82-13.25L90.82-13.25Q92.48-12.03 92.48-9.44L92.48-9.44L92.48-9.44Q92.48-6.85 91.36-5.02L91.36-5.02L91.36-5.02Q90.24-3.20 88.06-1.79L88.06-1.79L88.06-1.79Q83.39 1.22 75.23 1.22L75.23 1.22L75.23 1.22Q67.07 1.22 62.62-3.04L62.62-3.04L62.62-3.04Q58.18-7.30 58.18-14.85L58.18-14.85L58.18-14.85Q58.18-25.54 63.74-33.66L63.74-33.66L63.74-33.66Q67.97-39.68 75.52-42.24L75.52-42.24L75.52-42.24Q79.42-43.52 83.26-43.52L83.26-43.52L83.26-43.52Q87.10-43.52 89.47-43.01L89.47-43.01L89.47-43.01Q91.84-42.50 93.63-41.47L93.63-41.47L93.63-41.47Q97.54-39.23 97.54-35.65L97.54-35.65L97.54-35.65Q97.54-32.38 94.46-29.95L94.46-29.95L94.46-29.95Q91.65-27.78 89.34-27.78L89.34-27.78L89.34-27.78Q87.04-27.78 86.08-28.10L86.08-28.10L86.08-28.10Q86.34-30.40 86.34-31.90L86.34-31.90L86.34-31.90Q86.34-33.41 86.27-34.50L86.27-34.50L86.27-34.50Q86.21-35.58 85.89-36.61L85.89-36.61L85.89-36.61Q85.25-38.98 83.30-38.98L83.30-38.98L83.30-38.98Q81.34-38.98 79.39-37.15L79.39-37.15L79.39-37.15Q77.44-35.33 75.78-32.26L75.78-32.26L75.78-32.26Q72-25.28 72-17.02L72-17.02L72-17.02Q72-13.06 74.24-10.78L74.24-10.78L74.24-10.78Q76.48-8.51 81.28-8.51L81.28-8.51L81.28-8.51Q84.86-8.51 88.26-10.88L88.26-10.88L88.26-10.88Q89.73-11.90 90.82-13.25ZM95.87-3.78L95.87-3.78L95.87-3.78Q95.87-6.21 97.76-7.55L97.76-7.55L97.76-7.55Q99.65-8.90 102.34-8.90L102.34-8.90L102.34-8.90Q105.02-8.90 106.66-7.55L106.66-7.55L106.66-7.55Q108.29-6.21 108.29-3.78L108.29-3.78L108.29-3.78Q108.29-1.34 106.46-0.03L106.46-0.03L106.46-0.03Q104.64 1.28 101.95 1.28L101.95 1.28L101.95 1.28Q99.26 1.28 97.57-0.03L97.57-0.03L97.57-0.03Q95.87-1.34 95.87-3.78Z" fill="#ccc"></path></g></g><style>text {
  font-size: 120px;
  font-family: Arial Black;
  dominant-baseline: central;
  text-anchor: middle;
}</style></svg>